# Vectary OBJ Export units=mm
mtllib Project Name.mtl
o 000_Polyhedron
g Polyhedron
usemtl Monet 1_9220ac10-9002-4cd3-8382-e990f014d153
v 29.368 221.231 -168.869
v 7.222 242.782 -126.336
v 44.532 268.876 -152.623
v 80.365 234.006 -168.869
v 65.202 186.361 -152.623
v 19.996 191.785 -126.336
v 89.737 263.452 -126.336
v 44.532 268.876 -100.050
v 29.368 221.231 -83.804
v 65.202 186.361 -100.050
v 102.512 212.455 -126.336
v 80.365 234.006 -83.804
vn -0.50997 -0.12775 -0.85065
vn -0.95290 0.30328 0.00000
vn -0.20670 0.82516 -0.52573
vn -0.50997 -0.12775 -0.85065
vn -0.20670 0.82516 -0.52573
vn 0.50997 0.12775 -0.85065
vn -0.50997 -0.12775 -0.85065
vn 0.50997 0.12775 -0.85065
vn 0.20670 -0.82516 -0.52573
vn -0.50997 -0.12775 -0.85065
vn 0.20670 -0.82516 -0.52573
vn -0.69741 -0.71667 0.00000
vn -0.50997 -0.12775 -0.85065
vn -0.69741 -0.71667 0.00000
vn -0.95290 0.30328 0.00000
vn 0.50997 0.12775 -0.85065
vn -0.20670 0.82516 -0.52573
vn 0.69741 0.71667 0.00000
vn -0.20670 0.82516 -0.52573
vn -0.95290 0.30328 0.00000
vn -0.20670 0.82516 0.52573
vn -0.95290 0.30328 0.00000
vn -0.69741 -0.71667 0.00000
vn -0.50997 -0.12775 0.85065
vn -0.69741 -0.71667 0.00000
vn 0.20670 -0.82516 -0.52573
vn 0.20670 -0.82516 0.52573
vn 0.20670 -0.82516 -0.52573
vn 0.50997 0.12775 -0.85065
vn 0.95290 -0.30328 0.00000
vn 0.50997 0.12775 0.85065
vn 0.69741 0.71667 0.00000
vn -0.20670 0.82516 0.52573
vn 0.50997 0.12775 0.85065
vn -0.20670 0.82516 0.52573
vn -0.50997 -0.12775 0.85065
vn 0.50997 0.12775 0.85065
vn -0.50997 -0.12775 0.85065
vn 0.20670 -0.82516 0.52573
vn 0.50997 0.12775 0.85065
vn 0.20670 -0.82516 0.52573
vn 0.95290 -0.30328 0.00000
vn 0.50997 0.12775 0.85065
vn 0.95290 -0.30328 0.00000
vn 0.69741 0.71667 0.00000
vn -0.20670 0.82516 0.52573
vn 0.69741 0.71667 0.00000
vn -0.20670 0.82516 -0.52573
vn -0.50997 -0.12775 0.85065
vn -0.20670 0.82516 0.52573
vn -0.95290 0.30328 0.00000
vn 0.20670 -0.82516 0.52573
vn -0.50997 -0.12775 0.85065
vn -0.69741 -0.71667 0.00000
vn 0.95290 -0.30328 0.00000
vn 0.20670 -0.82516 0.52573
vn 0.20670 -0.82516 -0.52573
vn 0.69741 0.71667 0.00000
vn 0.95290 -0.30328 0.00000
vn 0.50997 0.12775 -0.85065
f 1//1 2//2 3//3 
f 1//4 3//5 4//6 
f 1//7 4//8 5//9 
f 1//10 5//11 6//12 
f 1//13 6//14 2//15 
f 4//16 3//17 7//18 
f 3//19 2//20 8//21 
f 2//22 6//23 9//24 
f 6//25 5//26 10//27 
f 5//28 4//29 11//30 
f 12//31 7//32 8//33 
f 12//34 8//35 9//36 
f 12//37 9//38 10//39 
f 12//40 10//41 11//42 
f 12//43 11//44 7//45 
f 8//46 7//47 3//48 
f 9//49 8//50 2//51 
f 10//52 9//53 6//54 
f 11//55 10//56 5//57 
f 7//58 11//59 4//60 
